<svg width="32" height="21" viewBox="0 0 32 21" fill="none" xmlns="http://www.w3.org/2000/svg">
<rect x="0.415254" y="0.415254" width="30.7288" height="19.9322" rx="2.07627" fill="white" stroke="#868686" stroke-width="0.830508"/>
<path d="M4.35337 7.02606L3 10.0972H3.91093L4.17122 9.47252H5.60262L5.86286 10.0972H6.79978L5.42047 7.02606H4.35337ZM4.45745 8.79583L4.89989 7.75478L5.34239 8.79583H4.45745ZM8.93391 8.952L8.23123 7.02606H6.95594V10.0972H7.76274V7.88496L8.5696 10.0972H9.29833L10.1051 7.88496V10.0972H10.938V7.02606H9.63664L8.93391 8.952ZM11.5626 10.0972H14.1652V9.39444H12.3954V8.89996H14.1131V8.19723H12.3954V7.70275H14.1652V7.02606H11.5626V10.0972ZM17.6006 8.01507C17.6006 7.41647 17.1842 7.02606 16.5075 7.02606H14.7117V10.1232H15.5446V9.03008H15.8568L16.7938 10.0972H17.8088L16.7678 8.97804C17.2883 8.87391 17.6006 8.48351 17.6006 8.01507ZM16.4034 8.32734H15.5446V7.70275H16.4034C16.6376 7.70275 16.7678 7.85891 16.7678 8.01507C16.7678 8.19723 16.6376 8.32734 16.4034 8.32734ZM18.017 10.0972H18.8499V7.02606H18.017V10.0972ZM20.0991 8.58763V8.5356C20.0991 8.06711 20.3593 7.75478 20.8799 7.75478H21.7908V7.00007H20.8018C19.7868 7.00007 19.2663 7.65071 19.2663 8.50955V8.56159C19.2663 9.52456 19.8649 10.0711 20.7758 10.0711H21.0621L21.4004 9.36839H20.9059C20.4114 9.39444 20.0991 9.10816 20.0991 8.58763ZM22.8058 7.02606L21.4524 10.1232H22.3634L22.6236 9.49851H24.055L24.3153 10.1232H25.2523L23.8729 7.02606H22.8058ZM22.9099 8.79583L23.3523 7.75478L23.7948 8.79583H22.9099ZM27.6987 8.89996L26.4234 7.02606H25.3824V10.0972H26.2152V8.14519L27.5165 10.0972H28.5055V7.02606H27.6987V8.89996ZM6.95594 14.0791H9.55856V13.3764H7.76274V12.8819H9.50653V12.1792H7.76274V11.6847H9.55856V10.9821H6.95594V14.0791ZM13.4364 10.9821H12.3694L11.5886 11.9189L10.7818 10.9821H9.68868L11.0681 12.5176L9.66269 14.0791H10.7297L11.5626 13.0901L12.3954 14.0791H13.4885L12.0831 12.4915L13.4364 10.9821ZM15.3884 10.9821H13.5926V14.0791H14.4254V13.0641H15.3884C16.0911 13.0641 16.5075 12.6217 16.5075 12.0231C16.4815 11.3985 16.0651 10.9821 15.3884 10.9821ZM15.2843 12.3614H14.3994V11.6847H15.2843C15.5185 11.6847 15.6487 11.8409 15.6487 12.0231C15.6487 12.2053 15.5446 12.3614 15.2843 12.3614ZM19.7347 11.971C19.7347 11.3724 19.3183 10.9821 18.6417 10.9821H16.8458V14.0791H17.6787V13.0121H17.991L18.9279 14.0791H19.917L18.9019 12.96C19.4224 12.8299 19.7347 12.4655 19.7347 11.971ZM18.5375 12.3094H17.6787V11.6847H18.5375C18.7718 11.6847 18.9019 11.8409 18.9019 11.9971C18.9019 12.1792 18.7718 12.3094 18.5375 12.3094ZM20.1511 14.0791H22.7538V13.3764H20.984V12.8819H22.7277V12.1792H20.984V11.6847H22.7538V10.9821H20.1511V14.0791ZM24.9659 12.1792H24.2112C24.055 12.1792 23.9249 12.0751 23.9249 11.945C23.9249 11.7889 24.055 11.7107 24.2112 11.7107H25.5906L25.9029 11.008H24.2112C23.5085 11.008 23.1181 11.4244 23.1181 11.971C23.1181 12.5436 23.5085 12.8819 24.1071 12.8819H24.8619C25.018 12.8819 25.1481 12.986 25.1481 13.1162C25.1481 13.2463 25.0441 13.3504 24.8619 13.3504H23.1962V14.0531H24.8619C25.5646 14.0531 25.9549 13.6367 25.9549 13.0641C25.9809 12.4915 25.6166 12.1792 24.9659 12.1792ZM28.011 12.1792H27.2562C27.1001 12.1792 26.9699 12.0751 26.9699 11.945C26.9699 11.7889 27.1001 11.7107 27.2562 11.7107H28.6356L28.9479 11.008H27.2562C26.5535 11.008 26.1631 11.4244 26.1631 11.971C26.1631 12.5436 26.5535 12.8819 27.1521 12.8819H27.9069C28.0631 12.8819 28.1932 12.986 28.1932 13.1162C28.1932 13.2463 28.0891 13.3504 27.9069 13.3504H26.2412V14.0531H27.9069C28.6096 14.0531 29 13.6367 29 13.0641C29 12.4915 28.6356 12.1792 28.011 12.1792Z" fill="#006FCF"/>
</svg>
