<svg width="32" height="21" viewBox="0 0 32 21" fill="none" xmlns="http://www.w3.org/2000/svg">
<rect x="0.415254" y="0.415254" width="30.7288" height="19.9322" rx="2.07627" fill="white" stroke="#868686" stroke-width="0.830508"/>
<path d="M5.89669 10.8563C5.67062 11.0604 5.37695 11.1495 4.91205 11.1495H4.71894V8.71021H4.91205C5.37695 8.71021 5.65906 8.7934 5.89669 9.00853C6.14553 9.23011 6.29523 9.57344 6.29523 9.92682C6.29523 10.2809 6.14553 10.6348 5.89669 10.8563ZM5.05618 8.08523H4V11.7739H5.0506C5.60927 11.7739 6.01265 11.6421 6.36676 11.3481C6.78753 10.9999 7.03637 10.475 7.03637 9.93213C7.03637 8.84356 6.22305 8.08523 5.05618 8.08523Z" fill="#201D1C"/>
<path d="M7.36719 11.7739H8.0867V8.08523H7.36719V11.7739Z" fill="#201D1C"/>
<path d="M9.84578 9.50083C9.41402 9.34107 9.28722 9.23569 9.28722 9.03639C9.28722 8.80408 9.5131 8.62754 9.82323 8.62754C10.0388 8.62754 10.216 8.71609 10.4035 8.92628L10.7799 8.4333C10.4705 8.1627 10.1004 8.02434 9.69597 8.02434C9.04334 8.02434 8.54551 8.47758 8.54551 9.08129C8.54551 9.58949 8.77732 9.84967 9.45308 10.0929C9.73473 10.1922 9.87808 10.2584 9.95043 10.303C10.0942 10.3968 10.1662 10.5297 10.1662 10.6846C10.1662 10.9835 9.92856 11.2049 9.60753 11.2049C9.26435 11.2049 8.98792 11.0333 8.82228 10.713L8.35742 11.1605C8.68893 11.6471 9.08706 11.8628 9.63451 11.8628C10.3823 11.8628 10.9068 11.3656 10.9068 10.6515C10.9068 10.0655 10.6643 9.80019 9.84578 9.50083Z" fill="#201D1C"/>
<path d="M11.1338 9.93244C11.1338 11.0167 11.9852 11.8574 13.0808 11.8574C13.3905 11.8574 13.6558 11.7965 13.9829 11.6424V10.7955C13.6953 11.0834 13.4405 11.1995 13.1142 11.1995C12.3896 11.1995 11.8753 10.6741 11.8753 9.92713C11.8753 9.21891 12.4059 8.66025 13.0808 8.66025C13.424 8.66025 13.6837 8.78271 13.9829 9.0753V8.22874C13.6671 8.06851 13.4074 8.00215 13.0978 8.00215C12.0077 8.00215 11.1338 8.8599 11.1338 9.93244Z" fill="#201D1C"/>
<path d="M19.6881 10.563L18.7045 8.08532H17.9185L19.4838 11.8687H19.871L21.4646 8.08532H20.6846L19.6881 10.563Z" fill="#201D1C"/>
<path d="M21.7896 11.7739H23.8301V11.1495H22.5085V10.1538H23.7813V9.52895H22.5085V8.71021H23.8301V8.08523H21.7896V11.7739Z" fill="#201D1C"/>
<path d="M25.2355 9.78346H25.0253V8.66624H25.2468C25.6949 8.66624 25.9385 8.85398 25.9385 9.21298C25.9385 9.58381 25.6949 9.78346 25.2355 9.78346ZM26.679 9.17423C26.679 8.48366 26.2033 8.08523 25.3735 8.08523H24.3066V11.7739H25.0253V10.2921H25.1191L26.115 11.7739H26.9999L25.8387 10.2199C26.3806 10.1098 26.679 9.73904 26.679 9.17423Z" fill="#201D1C"/>
<circle cx="16.1789" cy="9.93082" r="1.93082" fill="#F9A022"/>
</svg>
