<svg width="32" height="21" viewBox="0 0 32 21" fill="none" xmlns="http://www.w3.org/2000/svg">
<rect x="0.415254" y="0.415254" width="30.7288" height="19.9322" rx="2.07627" fill="white" stroke="#868686" stroke-width="0.830508"/>
<path d="M20.5581 11.9522H21.857C21.8941 11.9522 21.9807 11.9398 22.0178 11.9398C22.2652 11.8904 22.4755 11.6677 22.4755 11.3584C22.4755 11.0615 22.2652 10.8389 22.0178 10.777C21.9807 10.7646 21.9065 10.7646 21.857 10.7646H20.5581V11.9522Z" fill="#33A457"/>
<path d="M21.7096 3.75098C20.4726 3.75098 19.4582 4.75299 19.4582 6.00241V8.34043H22.6374C22.7116 8.34043 22.7982 8.34043 22.8601 8.3528C23.5775 8.38991 24.1095 8.76103 24.1095 9.40429C24.1095 9.91148 23.7507 10.3445 23.0827 10.431V10.4558C23.8126 10.5053 24.3693 10.9135 24.3693 11.5444C24.3693 12.2248 23.7507 12.6701 22.9343 12.6701H19.4458V17.2472H22.7487C23.9858 17.2472 25.0002 16.2452 25.0002 14.9958V3.75098H21.7096Z" fill="#33A457"/>
<path d="M22.3147 9.5526C22.3147 9.25571 22.1044 9.05778 21.857 9.02067C21.8323 9.02067 21.7704 9.0083 21.7333 9.0083H20.5581V10.0969H21.7333C21.7704 10.0969 21.8446 10.0969 21.857 10.0845C22.1044 10.0474 22.3147 9.84949 22.3147 9.5526Z" fill="#33A457"/>
<path d="M9.26429 3.75098C8.02724 3.75098 7.01286 4.75299 7.01286 6.00241V11.5568C7.64375 11.866 8.29939 12.0639 8.95503 12.0639C9.73437 12.0639 10.155 11.5939 10.155 10.9506V8.32806H12.0848V10.9382C12.0848 11.9526 11.4539 12.7814 9.31377 12.7814C8.01487 12.7814 7.00049 12.4969 7.00049 12.4969V17.2348H10.3034C11.5405 17.2348 12.5548 16.2328 12.5548 14.9834V3.75098H9.26429Z" fill="#009FE1"/>
<path d="M15.4868 3.75098C14.2497 3.75098 13.2354 4.75299 13.2354 6.00241V8.94659C13.8044 8.46414 14.794 8.15487 16.3898 8.2291C17.2434 8.26621 18.1588 8.50125 18.1588 8.50125V9.45377C17.7011 9.21874 17.1568 9.00844 16.4517 8.95896C15.2394 8.87236 14.5095 9.46615 14.5095 10.5053C14.5095 11.5568 15.2394 12.1505 16.4517 12.0516C17.1568 12.0021 17.7011 11.7794 18.1588 11.5568V12.5093C18.1588 12.5093 17.2558 12.7443 16.3898 12.7814C14.794 12.8557 13.8044 12.5464 13.2354 12.0639V17.2596H16.5383C17.7753 17.2596 18.7897 16.2575 18.7897 15.0081V3.75098H15.4868Z" fill="#CC2229"/>
</svg>
