<svg width="32" height="21" viewBox="0 0 32 21" fill="none" xmlns="http://www.w3.org/2000/svg">
<rect x="0.415254" y="0.415254" width="30.7288" height="19.9322" rx="2.07627" fill="white" stroke="#868686" stroke-width="0.830508"/>
<path d="M12.5229 6.24512H18.2063V15.5277H12.5229V6.24512Z" fill="#FF5F00"/>
<path d="M13.1085 10.8876C13.1077 9.99377 13.3104 9.11149 13.701 8.30753C14.0916 7.50357 14.66 6.799 15.3631 6.24714C14.4922 5.56274 13.4464 5.13716 12.3452 5.01903C11.2439 4.90089 10.1316 5.09497 9.1354 5.57909C8.13921 6.0632 7.29932 6.81782 6.71171 7.75669C6.12411 8.69556 5.8125 9.78081 5.8125 10.8884C5.8125 11.996 6.12411 13.0812 6.71171 14.0201C7.29932 14.959 8.13921 15.7136 9.1354 16.1977C10.1316 16.6818 11.2439 16.8759 12.3452 16.7578C13.4464 16.6396 14.4922 16.2141 15.3631 15.5297C14.6598 14.9776 14.0913 14.2728 13.7006 13.4685C13.31 12.6643 13.1075 11.7817 13.1085 10.8876V10.8876Z" fill="#EB001B"/>
<path d="M24.9148 10.8875C24.9147 11.9952 24.6031 13.0805 24.0153 14.0194C23.4276 14.9583 22.5876 15.7129 21.5913 16.1969C20.595 16.681 19.4826 16.8749 18.3812 16.7566C17.2799 16.6383 16.2341 16.2125 15.3633 15.5279C16.0661 14.9756 16.6343 14.2708 17.025 13.4668C17.4158 12.6628 17.6188 11.7806 17.6188 10.8867C17.6188 9.99274 17.4158 9.11051 17.025 8.30651C16.6343 7.50251 16.0661 6.79775 15.3633 6.24539C16.2341 5.56078 17.2799 5.13499 18.3812 5.01668C19.4826 4.89837 20.595 5.09233 21.5913 5.57638C22.5876 6.06042 23.4276 6.81503 24.0154 7.75394C24.6031 8.69285 24.9147 9.77817 24.9148 10.8858V10.8875Z" fill="#F79E1B"/>
</svg>
