<svg width="32" height="21" viewBox="0 0 32 21" fill="none" xmlns="http://www.w3.org/2000/svg">
<rect x="0.415254" y="0.415254" width="30.7288" height="19.9322" rx="2.07627" fill="white" stroke="#868686" stroke-width="0.830508"/>
<path d="M20.0767 7.74676C19.5941 7.56317 19.0841 7.47104 18.5706 7.47472C16.9098 7.47472 15.7369 8.34829 15.7286 9.6023C15.7182 10.5236 16.5621 11.0427 17.2004 11.3505C17.8554 11.667 18.0744 11.8665 18.0723 12.1493C18.0682 12.5796 17.5492 12.7747 17.0665 12.7747C16.4033 12.7747 16.041 12.6782 15.4836 12.4366L15.277 12.3358L15.0414 13.7794C15.4452 13.955 16.1728 14.1057 16.9243 14.1187C18.6899 14.1187 19.8442 13.2505 19.8576 11.9163C19.8722 11.1804 19.4155 10.6244 18.4543 10.1648C17.8699 9.86676 17.5077 9.66733 17.5077 9.36494C17.5077 9.09723 17.818 8.81109 18.4668 8.81109C18.8985 8.80019 19.3276 8.88477 19.7258 9.05929L19.8815 9.13191L20.1171 7.737L20.0767 7.74676ZM24.3864 7.59177H23.0889C22.6851 7.59177 22.381 7.70774 22.2045 8.12611L19.7092 14.0287H21.4748L21.8277 13.0608L23.9826 13.063C24.0334 13.2895 24.1891 14.0287 24.1891 14.0287H25.7461L24.3864 7.59177ZM13.3402 7.53758H15.0227L13.9702 13.9778H12.2897L13.3402 7.53541V7.53758ZM9.06889 11.0872L9.24327 11.9813L10.8874 7.59177H12.6696L10.0218 14.02H8.24369L6.79052 8.57698C6.76699 8.48723 6.71171 8.41015 6.63586 8.3613C6.1121 8.07878 5.55714 7.86439 4.9834 7.72291L5.00623 7.58743H7.71432C8.08177 7.60261 8.37759 7.72291 8.4762 8.13261L9.06785 11.0904L9.06889 11.0872ZM22.3104 11.744L22.9809 9.94263C22.9726 9.96214 23.119 9.57087 23.2041 9.32917L23.3193 9.88518L23.7086 11.7429H22.3094L22.3104 11.744Z" fill="#182683"/>
</svg>
