<svg width="53" height="18" viewBox="0 0 53 18" fill="none" xmlns="http://www.w3.org/2000/svg">
<path d="M2.67376 0.0012207L0 6.26982H1.74081L2.23432 5.0146H5.10209L5.59295 6.26982H7.37192L4.70028 0.0012207H2.67376ZM3.6629 1.46012L4.53702 3.65354H2.78614L3.6629 1.46012Z" fill="white"/>
<path d="M7.55522 6.2686V0L10.0286 0.00908803L11.4673 4.05059L12.8715 0H15.3252V6.2686H13.771V1.64974L12.1235 6.26913H10.7607L9.1089 1.64974V6.2686H7.55469H7.55522Z" fill="white"/>
<path d="M16.3887 6.2686V0H21.4595V1.40223H17.9588V2.47462H21.3779V3.79452H17.9588V4.90807H21.4595V6.26913H16.3887V6.2686Z" fill="white"/>
<path d="M22.3589 0.0012207V6.26982H23.9131V4.04272H24.5672L26.4305 6.26982H28.3298L26.2852 3.96039C27.1244 3.88876 27.99 3.16278 27.99 2.0348C27.99 0.715967 26.9632 0.0012207 25.8172 0.0012207H22.3589ZM23.9131 1.40345H25.6894C26.1156 1.40345 26.4257 1.73971 26.4257 2.06313C26.4257 2.47958 26.0239 2.72282 25.7127 2.72282H23.9136V1.40345H23.9131Z" fill="white"/>
<path d="M30.2111 6.2686H28.6245V0H30.2111V6.2686Z" fill="white"/>
<path d="M33.9734 6.2686H33.6309C31.9739 6.2686 30.9678 4.9519 30.9678 3.15996C30.9678 1.36802 31.9627 0 34.0555 0H35.773V1.48456H33.9925C33.1427 1.48456 32.5421 2.15333 32.5421 3.17546C32.5421 4.38952 33.2291 4.89952 34.2188 4.89952H34.6275L33.9734 6.2686Z" fill="white"/>
<path d="M37.3549 0.0012207L34.6812 6.26982H36.422L36.9155 5.0146H39.7832L40.2741 6.26982H42.0531L39.382 0.0012207H37.3549ZM38.3441 1.46012L39.2182 3.65354H37.4673L38.3441 1.46012Z" fill="white"/>
<path d="M42.2344 6.2686V0H44.2101L46.7327 3.93886V0H48.287V6.2686H46.3749L43.7881 2.2271V6.2686H42.2339H42.2344Z" fill="white"/>
<path d="M11.3179 17.2397V10.9711H16.3887V12.3734H12.888V13.4457H16.3071V14.7656H12.888V15.8792H16.3887V17.2403H11.3179V17.2397Z" fill="white"/>
<path d="M36.1655 17.2397V10.9711H41.2363V12.3734H37.7356V13.4457H41.1383V14.7656H37.7356V15.8792H41.2363V17.2403H36.1655V17.2397Z" fill="white"/>
<path d="M16.5852 17.2397L19.0544 14.1438L16.5264 10.9705H18.484L19.9894 12.9319L21.5002 10.9705H23.3815L20.8869 14.1048L23.3603 17.2391H21.4026L19.9407 15.3087L18.5142 17.2391H16.5847L16.5852 17.2397Z" fill="white"/>
<path d="M23.5454 10.9711V17.2397H25.1404V15.2601H26.7763C28.1603 15.2601 29.2094 14.5197 29.2094 13.0796C29.2094 11.8863 28.3867 10.9711 26.9783 10.9711H23.5454ZM25.1404 12.3889H26.8632C27.3106 12.3889 27.6303 12.6652 27.6303 13.1106C27.6303 13.5291 27.3122 13.8323 26.8585 13.8323H25.141V12.3889H25.1404Z" fill="white"/>
<path d="M29.8843 10.9705V17.2391H31.4385V15.012H32.0926L33.9559 17.2391H35.8552L33.8106 14.9297C34.6498 14.8581 35.5154 14.1321 35.5154 13.0041C35.5154 11.6847 34.4886 10.9705 33.3431 10.9705H29.8848H29.8843ZM31.4385 12.3727H33.2148C33.641 12.3727 33.9511 12.709 33.9511 13.0324C33.9511 13.4489 33.5493 13.6921 33.2381 13.6921H31.439V12.3722L31.4385 12.3727Z" fill="white"/>
<path d="M41.956 17.2397V15.8787H45.066C45.5261 15.8787 45.7254 15.6279 45.7254 15.3526C45.7254 15.0773 45.5266 14.8228 45.066 14.8228H43.6607C42.4389 14.8228 41.7588 14.0723 41.7588 12.9454C41.7588 11.9403 42.3816 10.9711 44.1972 10.9711H47.2235L46.5693 12.3814H43.9523C43.4519 12.3814 43.2982 12.646 43.2982 12.8989C43.2982 13.1517 43.4885 13.4452 43.8707 13.4452H45.3427C46.7045 13.4452 47.2955 14.2241 47.2955 15.2446C47.2955 16.3416 46.6372 17.2397 45.2685 17.2397H41.9565H41.956Z" fill="white"/>
<path d="M47.6596 17.2397V15.8787H50.7696C51.2297 15.8787 51.429 15.6279 51.429 15.3526C51.429 15.0773 51.2303 14.8228 50.7696 14.8228H49.3644C48.1425 14.8228 47.4624 14.0723 47.4624 12.9454C47.4624 11.9403 48.0853 10.9711 49.9008 10.9711H52.9271L52.2729 12.3814H49.6559C49.1555 12.3814 49.0018 12.646 49.0018 12.8989C49.0018 13.1517 49.1921 13.4452 49.5743 13.4452H51.0463C52.4081 13.4452 52.9992 14.2241 52.9992 15.2446C52.9992 16.3416 52.3408 17.2397 50.9721 17.2397H47.6601H47.6596Z" fill="white"/>
</svg>
