<svg width="26" height="19" viewBox="0 0 26 19" fill="none" xmlns="http://www.w3.org/2000/svg">
<path d="M0 8.28125H24V15.5485C24 16.9197 22.8884 18.0312 21.5172 18.0312H2.48276C1.11157 18.0312 0 16.9197 0 15.5485V8.28125Z" fill="#E5E5E5"/>
<path d="M0 4.76401C0 3.39282 1.11157 2.28125 2.48276 2.28125H21.5172C22.8884 2.28125 24 3.39282 24 4.76401V5.28125H0V4.76401Z" fill="#E5E5E5"/>
<rect x="2" y="10" width="20" height="3" rx="1" fill="white"/>
<rect y="5" width="22" height="3.5" fill="#BBBBBB"/>
<circle cx="19" cy="7" r="7" fill="#666666"/>
<path d="M14.7471 5.108C14.6725 5.33667 14.5558 5.50467 14.3971 5.612C14.2431 5.71933 14.0378 5.773 13.7811 5.773V4.933C14.0331 4.933 14.2291 4.905 14.3691 4.849C14.5091 4.793 14.6071 4.70667 14.6631 4.59C14.7191 4.46867 14.7471 4.30533 14.7471 4.1H15.7271V9H14.7471V5.108ZM18.2152 9.049C17.7206 9.049 17.2912 8.93233 16.9272 8.699C16.5679 8.46567 16.3322 8.139 16.2202 7.719L17.1582 7.502C17.2469 7.73533 17.3822 7.915 17.5642 8.041C17.7509 8.167 17.9772 8.23 18.2432 8.23C18.4906 8.23 18.6842 8.16933 18.8242 8.048C18.9642 7.92667 19.0342 7.75167 19.0342 7.523C19.0342 7.313 18.9572 7.145 18.8032 7.019C18.6492 6.893 18.4276 6.83 18.1382 6.83H17.6202L17.7462 6.088H18.1872C18.4019 6.088 18.5722 6.03433 18.6982 5.927C18.8289 5.81967 18.8942 5.66333 18.8942 5.458C18.8942 5.28067 18.8289 5.13833 18.6982 5.031C18.5676 4.92367 18.3949 4.87 18.1802 4.87C17.7182 4.87 17.4359 5.10333 17.3332 5.57L16.4232 5.367C16.4652 5.11033 16.5702 4.88167 16.7382 4.681C16.9062 4.48033 17.1209 4.32633 17.3822 4.219C17.6482 4.107 17.9352 4.051 18.2432 4.051C18.7472 4.051 19.1486 4.16533 19.4472 4.394C19.7459 4.618 19.8952 4.92367 19.8952 5.311C19.8952 5.58167 19.8089 5.808 19.6362 5.99C19.4636 6.172 19.2372 6.298 18.9572 6.368C19.2886 6.43333 19.5522 6.57333 19.7482 6.788C19.9489 7.00267 20.0492 7.26167 20.0492 7.565C20.0492 8.01767 19.8882 8.37933 19.5662 8.65C19.2442 8.916 18.7939 9.049 18.2152 9.049ZM22.3293 9.049C21.8673 9.049 21.4683 8.92767 21.1323 8.685C20.801 8.43767 20.584 8.11567 20.4813 7.719L21.4123 7.502C21.4917 7.72133 21.6153 7.89867 21.7833 8.034C21.9513 8.16467 22.1427 8.23 22.3573 8.23C22.6 8.23 22.7937 8.146 22.9383 7.978C23.0877 7.81 23.1623 7.586 23.1623 7.306C23.1623 7.03067 23.09 6.809 22.9453 6.641C22.8007 6.473 22.607 6.389 22.3643 6.389C22.1823 6.389 22.012 6.452 21.8533 6.578C21.6993 6.69933 21.5873 6.83933 21.5173 6.998H20.5233L20.9783 4.1H24.0093L23.9393 4.87H21.8533L21.6083 6.333C21.7343 6.123 21.9 5.962 22.1053 5.85C22.3107 5.73333 22.544 5.675 22.8053 5.675C23.23 5.675 23.5637 5.822 23.8063 6.116C24.0537 6.40533 24.1773 6.79733 24.1773 7.292C24.1773 7.642 24.1003 7.95 23.9463 8.216C23.797 8.482 23.5823 8.68733 23.3023 8.832C23.027 8.97667 22.7027 9.049 22.3293 9.049Z" fill="white"/>
</svg>
