<svg width="77" height="34" viewBox="0 0 77 34" fill="none" xmlns="http://www.w3.org/2000/svg">
<path d="M52.5908 12.7258C51.7099 12.0369 50.607 11.695 49.4908 11.7648H44.5908V22.2148H47.3179V13.9448H49.3618C49.8279 13.9155 50.2881 14.0618 50.6519 14.3548C50.8072 14.5047 50.928 14.6867 51.0059 14.8881C51.0837 15.0894 51.1168 15.3053 51.1028 15.5208C51.1183 15.7426 51.0861 15.9653 51.0083 16.1737C50.9305 16.3821 50.809 16.5713 50.6519 16.7288C50.2912 17.0281 49.8296 17.1781 49.3618 17.1478H49.1318C48.8443 17.1478 48.5686 17.262 48.3654 17.4653C48.1621 17.6685 48.0479 17.9443 48.0479 18.2318C48.0479 18.5193 48.1621 18.795 48.3654 18.9983C48.5686 19.2015 48.8443 19.3158 49.1318 19.3158H49.5018C50.628 19.389 51.7388 19.0239 52.6018 18.2968C52.9796 17.9256 53.2734 17.4777 53.4631 16.9832C53.6529 16.4888 53.7342 15.9594 53.7018 15.4308C53.7303 14.9255 53.6454 14.4203 53.4531 13.9523C53.2609 13.4842 52.9662 13.0651 52.5908 12.7258Z" fill="#8300E9"/>
<path d="M65.8083 22.1947L62.2084 13.2517C62.0302 12.8051 61.7219 12.4222 61.3236 12.1528C60.9253 11.8833 60.4553 11.7398 59.9744 11.7407C59.4947 11.7389 59.0255 11.8808 58.6273 12.1482C58.2291 12.4156 57.9202 12.7961 57.7404 13.2407L54.1104 22.1917H56.9844L59.9744 14.9487L61.0093 17.4857C60.4099 17.5024 59.8405 17.7518 59.422 18.1812C59.0034 18.6106 58.7687 19.1861 58.7673 19.7857C60.1543 19.7857 61.7894 19.5397 62.2084 20.4347L62.9303 22.1997H65.8134L65.8083 22.1947Z" fill="#8300E9"/>
<path d="M76.0903 11.7651H73.3143C73.2095 11.7656 73.1066 11.7935 73.0159 11.8462C72.9252 11.8988 72.8498 11.9743 72.7974 12.0651L71.1974 14.8161L69.5303 12.0571C69.4776 11.9692 69.4031 11.8964 69.3138 11.8459C69.2246 11.7954 69.1239 11.769 69.0214 11.7691H66.2373L69.2433 16.7951C69.649 17.4761 69.8645 18.2535 69.8673 19.0461V22.1991H72.5934V19.0131C72.5939 18.2427 72.7981 17.4862 73.1853 16.8201L76.0903 11.7651Z" fill="#8300E9"/>
<path d="M13.8885 9.56396H10.6445V24.404H13.8885V9.56396Z" fill="#8300E9"/>
<path d="M28.8845 4.88289C28.5021 4.50415 27.9858 4.29168 27.4476 4.29168C26.9094 4.29168 26.3929 4.50415 26.0106 4.88289L25.0335 5.86089L15.7205 15.1739C15.2415 15.653 14.9724 16.3028 14.9724 16.9804C14.9724 17.6579 15.2415 18.3077 15.7205 18.7869L21.3295 24.3959H25.9205L18.5045 16.9799L27.4235 8.06989C29.5899 10.6178 30.749 13.8704 30.682 17.2141C30.6149 20.5578 29.3265 23.7614 27.0598 26.2205C24.793 28.6795 21.7047 30.224 18.3775 30.5624C15.0503 30.9009 11.7142 30.01 8.99872 28.0579C6.28324 26.1057 4.37615 23.2272 3.63715 19.9655C2.89815 16.7037 3.37835 13.2843 4.98725 10.3524C6.59615 7.42043 9.22248 5.17867 12.3707 4.05004C15.5189 2.92141 18.9712 2.98396 22.0765 4.22589L24.5325 1.77089C22.2421 0.633933 19.7244 0.0289249 17.1674 0.00101189C14.6104 -0.0269011 12.0801 0.523004 9.76533 1.60968C7.45057 2.69637 5.41112 4.29177 3.79914 6.27684C2.18716 8.26191 1.04424 10.5854 0.455756 13.0739C-0.132726 15.5624 -0.15152 18.1517 0.40058 20.6485C0.95268 23.1453 2.06152 25.4852 3.64435 27.4936C5.22719 29.502 7.24317 31.127 9.54182 32.2474C11.8405 33.3677 14.3624 33.9545 16.9195 33.9639C21.4007 33.9381 25.6938 32.1595 28.8801 29.0085C32.0664 25.8575 33.8929 21.5845 33.9686 17.1039C33.9844 14.83 33.5423 12.5761 32.6689 10.4765C31.7955 8.37699 30.5084 6.47467 28.8845 4.88289Z" fill="#8300E9"/>
</svg>
