<svg width="29" height="28" viewBox="0 0 29 28" fill="none" xmlns="http://www.w3.org/2000/svg">
<path d="M9.2409 8.21171H11.8615V20.1877H9.2409V8.21171ZM23.9575 4.4408C23.6491 4.13473 23.2323 3.96298 22.7979 3.96298C22.3635 3.96298 21.9466 4.13473 21.6383 4.4408L20.8505 5.22864L13.3345 12.7466C12.9483 13.1335 12.7314 13.6577 12.7314 14.2044C12.7314 14.751 12.9483 15.2752 13.3345 15.6621L17.8595 20.1864H21.5654L15.5821 14.2044L22.776 7.01106C24.1525 8.61992 25.039 10.5896 25.3305 12.6868C25.622 14.784 25.3063 16.9207 24.4207 18.844C23.5352 20.7673 22.117 22.3964 20.3341 23.5385C18.5511 24.6805 16.4782 25.2876 14.3609 25.2878C8.24565 25.2925 3.26879 20.3183 3.26879 14.2044C3.26877 12.3937 3.7124 10.6106 4.56086 9.01098C5.40933 7.41139 6.63679 6.04405 8.13589 5.02854C9.63499 4.01304 11.3601 3.3803 13.1603 3.18566C14.9605 2.99102 16.7809 3.24042 18.4624 3.91203L20.443 1.93083C18.4693 0.947376 16.2866 0.457389 14.0819 0.502905C6.81839 0.643378 0.885383 6.4982 0.655457 13.7611C0.410291 21.501 6.61895 27.8786 14.2993 27.9078C21.7477 27.9363 28.0014 21.7541 28.0557 14.3057C28.0703 12.4704 27.715 10.651 27.0108 8.95606C26.3067 7.26113 25.2683 5.72548 23.9575 4.4408Z" fill="#8F00FF"/>
</svg>
