<svg width="37" height="23" viewBox="0 0 37 23" fill="none" xmlns="http://www.w3.org/2000/svg">
<path d="M23.0806 2.85083H13.4556V20.1453H23.0806V2.85083Z" fill="#FF5F00"/>
<path d="M14.0665 11.4983C14.0665 7.9844 15.7165 4.86774 18.2526 2.85107C16.3887 1.38441 14.0359 0.498291 11.4692 0.498291C5.38868 0.498291 0.469238 5.41774 0.469238 11.4983C0.469238 17.5788 5.38868 22.4983 11.4692 22.4983C14.0359 22.4983 16.3887 21.6122 18.2526 20.1455C15.7165 18.1288 14.0665 15.0122 14.0665 11.4983Z" fill="#EB001B"/>
<path d="M36.067 11.4983C36.067 17.5788 31.1476 22.4983 25.067 22.4983C22.5004 22.4983 20.1476 21.6122 18.2837 20.1455C20.8504 18.1288 22.4698 15.0122 22.4698 11.4983C22.4698 7.9844 20.8198 4.86774 18.2837 2.85107C20.1476 1.38441 22.5004 0.498291 25.067 0.498291C31.1476 0.498291 36.067 5.41774 36.067 11.4983Z" fill="#F79E1B"/>
<path d="M35.0281 18.3123V17.9456H35.1809V17.8845H34.7837V17.9456H34.9365V18.3123H35.0281ZM35.7309 18.3123V17.8845H35.6087L35.4865 18.1901L35.3642 17.8845H35.242V18.3123H35.3337V17.9762L35.4559 18.2512H35.5476L35.6698 17.9762V18.3123H35.7309Z" fill="#F79E1B"/>
</svg>
