<svg width="32" height="21" viewBox="0 0 32 21" fill="none" xmlns="http://www.w3.org/2000/svg">
<rect x="0.415254" y="0.415254" width="30.7288" height="19.9322" rx="2.07627" fill="white" stroke="#868686" stroke-width="0.830508"/>
<path d="M9.42638 4H14.842C15.5979 4 16.0681 4.59857 15.8918 5.33538L13.3704 15.8512C13.1925 16.5854 12.4356 17.1845 11.6791 17.1845H6.26404C5.50913 17.1845 5.03789 16.5854 5.21424 15.8512L7.73664 5.33538C7.91299 4.59857 8.66949 4 9.42638 4Z" fill="#E21836"/>
<path d="M14.3909 4H20.6187C21.3745 4 21.0337 4.59857 20.8559 5.33538L18.3349 15.8512C18.158 16.5854 18.2132 17.1845 17.4558 17.1845H11.228C10.4706 17.1845 10.0019 16.5854 10.1798 15.8512L12.7006 5.33538C12.8796 4.59857 13.6345 4 14.3909 4Z" fill="#00447C"/>
<path d="M20.3716 4H25.7872C26.5442 4 27.0144 4.59857 26.8366 5.33538L24.3156 15.8512C24.1377 16.5854 23.3803 17.1845 22.6234 17.1845H17.2103C16.4529 17.1845 15.9831 16.5854 16.1605 15.8512L18.6818 5.33538C18.8582 4.59857 19.6142 4 20.3716 4Z" fill="#007B84"/>
<path d="M10.8409 7.37013C10.284 7.37564 10.1195 7.37013 10.067 7.35808C10.0468 7.4513 9.67101 9.13533 9.66996 9.13674C9.58904 9.47745 9.53017 9.72031 9.33019 9.87714C9.21667 9.96831 9.08414 10.0123 8.93049 10.0123C8.68351 10.0123 8.53963 9.89317 8.51548 9.66723L8.51086 9.58965C8.51086 9.58965 8.5861 9.13328 8.5861 9.13072C8.5861 9.13072 8.98052 7.59607 9.05114 7.39321C9.05483 7.38167 9.05589 7.37564 9.05681 7.37013C8.2891 7.37667 8.153 7.37013 8.14363 7.35808C8.13848 7.37462 8.11948 7.46976 8.11948 7.46976L7.71674 9.19945L7.68216 9.34614L7.61523 9.82597C7.61523 9.96831 7.64401 10.0845 7.7013 10.1827C7.88478 10.4942 8.40816 10.5409 8.70424 10.5409C9.08572 10.5409 9.44357 10.4621 9.6854 10.3184C10.1052 10.0774 10.215 9.70082 10.3129 9.36614L10.3583 9.19445C10.3583 9.19445 10.7646 7.60056 10.8337 7.39321C10.8363 7.38167 10.8374 7.37564 10.8409 7.37013ZM12.2233 8.65593C12.1254 8.65593 11.9464 8.67902 11.7856 8.75557C11.7273 8.78468 11.6721 8.81827 11.6139 8.85174L11.6664 8.66747L11.6376 8.63644C11.2967 8.70351 11.2204 8.71248 10.9054 8.75557L10.879 8.77262C10.8425 9.06717 10.81 9.28862 10.6744 9.86757C10.6228 10.0809 10.5692 10.2964 10.5155 10.5092L10.53 10.5363C10.8528 10.5197 10.9507 10.5197 11.2312 10.5242L11.2539 10.5003C11.2896 10.3229 11.2942 10.2814 11.3731 9.9222C11.4102 9.75191 11.4876 9.37774 11.5257 9.24451C11.5958 9.21296 11.665 9.18193 11.731 9.18193C11.8882 9.18193 11.869 9.31516 11.863 9.36825C11.8562 9.45737 11.799 9.74845 11.7402 9.99836L11.701 10.1597C11.6737 10.2788 11.6437 10.3946 11.6164 10.5127L11.6283 10.5363C11.9464 10.5197 12.0434 10.5197 12.3151 10.5242L12.347 10.5003C12.3961 10.2233 12.4105 10.1492 12.4976 9.74588L12.5415 9.56059C12.6266 9.19796 12.6694 9.01408 12.6049 8.86431C12.5368 8.69645 12.3734 8.65593 12.2233 8.65593ZM13.7676 9.03561C13.5985 9.06715 13.4907 9.08818 13.3835 9.10177C13.2773 9.11832 13.1736 9.13332 13.0102 9.15537L12.9973 9.16679L12.9854 9.17589C12.9684 9.29412 12.9565 9.39632 12.9339 9.51647C12.9148 9.64072 12.8853 9.7819 12.8374 9.98476C12.8003 10.14 12.7812 10.1942 12.7601 10.2488C12.7395 10.3034 12.7168 10.3565 12.6751 10.5092L12.6848 10.5233L12.693 10.5363C12.8457 10.5292 12.9457 10.5242 13.0484 10.5233C13.1509 10.5197 13.2572 10.5233 13.4217 10.5242L13.4361 10.5128L13.4515 10.5002C13.4753 10.3625 13.4788 10.3255 13.4933 10.2583C13.5077 10.1862 13.5325 10.0864 13.5934 9.81999C13.6222 9.69483 13.6542 9.57007 13.6841 9.44235C13.7151 9.31515 13.7476 9.18987 13.7785 9.06472L13.7738 9.04958L13.7676 9.03561ZM13.7712 8.52369C13.6176 8.4356 13.3479 8.46355 13.1664 8.58524C12.9854 8.70449 12.9648 8.87376 13.118 8.963C13.269 9.04866 13.5397 9.02314 13.7196 8.90043C13.9002 8.77861 13.9228 8.61089 13.7712 8.52369ZM14.7005 10.5639C15.0113 10.5639 15.33 10.4807 15.5698 10.2337C15.7543 10.0334 15.839 9.73539 15.8683 9.61268C15.9637 9.20593 15.8894 9.01603 15.7961 8.90036C15.6543 8.72405 15.4038 8.6675 15.1438 8.6675C14.9876 8.6675 14.6153 8.6825 14.3245 8.94294C14.1157 9.13079 14.0192 9.38571 13.961 9.63012C13.9022 9.87914 13.8347 10.3274 14.259 10.4943C14.39 10.5489 14.5788 10.5639 14.7005 10.5639ZM14.6762 9.64871C14.7478 9.3407 14.8325 9.08219 15.0484 9.08219C15.2176 9.08219 15.2299 9.27454 15.1547 9.58357C15.1412 9.65217 15.0794 9.90722 14.9959 10.0158C14.9375 10.096 14.8685 10.1446 14.7922 10.1446C14.7695 10.1446 14.6345 10.1446 14.6323 9.94979C14.6313 9.85362 14.6515 9.7554 14.6762 9.64871ZM16.6454 10.5243L16.6696 10.5003C16.7041 10.323 16.7098 10.2813 16.7861 9.92224C16.8242 9.75195 16.9031 9.37777 16.9402 9.24454C17.0105 9.21287 17.0784 9.18184 17.1466 9.18184C17.3027 9.18184 17.2837 9.31507 17.2775 9.36816C17.2718 9.45741 17.2145 9.74836 17.1547 9.99828L17.1177 10.1596C17.0893 10.2788 17.0584 10.3945 17.0311 10.5127L17.0429 10.5363C17.3621 10.5198 17.4554 10.5198 17.7287 10.5243L17.7617 10.5003C17.8096 10.2232 17.8225 10.1491 17.9123 9.74592L17.9551 9.5605C18.0406 9.19787 18.0839 9.01412 18.0205 8.86435C17.9504 8.69649 17.786 8.65597 17.638 8.65597C17.5399 8.65597 17.36 8.67893 17.2002 8.75561C17.143 8.78471 17.0857 8.81818 17.0295 8.85178L17.0784 8.66751L17.0522 8.63635C16.7114 8.70355 16.6335 8.71252 16.3189 8.75561L16.2948 8.77266C16.2566 9.0672 16.2256 9.28853 16.09 9.86761C16.0384 10.081 15.9848 10.2964 15.9312 10.5093L15.9456 10.5363C16.2689 10.5198 16.3654 10.5198 16.6454 10.5243ZM18.9904 10.5363C19.0105 10.4411 19.1297 9.87716 19.1307 9.87716C19.1307 9.87716 19.2322 9.46337 19.2384 9.44836C19.2384 9.44836 19.2704 9.40528 19.3023 9.38823H19.3493C19.7927 9.38823 20.2934 9.38823 20.6858 9.10779C20.9529 8.91544 21.1354 8.63142 21.2169 8.28622C21.238 8.20159 21.2536 8.10093 21.2536 8.00027C21.2536 7.86807 21.2262 7.73728 21.1473 7.63508C20.9472 7.3631 20.5487 7.3581 20.0887 7.35605C20.0872 7.35605 19.8619 7.3581 19.8619 7.3581C19.273 7.36515 19.0369 7.3631 18.9399 7.35156C18.9317 7.39324 18.9162 7.46735 18.9162 7.46735C18.9162 7.46735 18.7053 8.41702 18.7053 8.41856C18.7053 8.41856 18.2005 10.4377 18.1768 10.5328C18.6909 10.5268 18.9017 10.5268 18.9904 10.5363ZM19.3813 8.84928C19.3813 8.84928 19.6055 7.90154 19.6045 7.90513L19.6117 7.85653L19.6149 7.81947L19.7045 7.82845C19.7045 7.82845 20.1671 7.86704 20.1779 7.86807C20.3604 7.93667 20.4357 8.1135 20.3831 8.34431C20.3352 8.55525 20.1944 8.73259 20.0134 8.81825C19.8644 8.89082 19.6818 8.89685 19.4937 8.89685H19.372L19.3813 8.84928ZM20.7776 9.66626C20.7183 9.9117 20.6502 10.36 21.0725 10.5198C21.2071 10.5754 21.3278 10.592 21.4504 10.5859C21.5799 10.5791 21.6999 10.516 21.811 10.4253C21.801 10.4626 21.791 10.4999 21.781 10.5373L21.8001 10.5613C22.1038 10.5489 22.1981 10.5489 22.5272 10.5513L22.557 10.5292C22.605 10.2548 22.6503 9.98838 22.7752 9.46341C22.836 9.21195 22.8968 8.96293 22.9592 8.7125L22.9494 8.68493C22.6097 8.74609 22.5188 8.75917 22.192 8.80418L22.1672 8.8238C22.1639 8.84932 22.1605 8.87381 22.1573 8.8983C22.1065 8.81854 22.0328 8.75045 21.9192 8.70801C21.7738 8.65249 21.4325 8.72404 21.139 8.98357C20.9328 9.16886 20.8338 9.42276 20.7776 9.66626ZM21.4912 9.68127C21.5639 9.37878 21.6475 9.12283 21.864 9.12283C22.0009 9.12283 22.0729 9.24555 22.0583 9.45481C22.0467 9.507 22.0341 9.56201 22.0192 9.62421C21.9976 9.71409 21.9741 9.80321 21.9512 9.89246C21.928 9.9535 21.9009 10.0111 21.8712 10.0494C21.8155 10.1261 21.683 10.1737 21.6067 10.1737C21.5851 10.1737 21.4515 10.1737 21.4469 9.98235C21.4458 9.88708 21.466 9.78898 21.4912 9.68127ZM25.2177 8.68248L25.1914 8.65337C24.8552 8.71954 24.7943 8.73005 24.4854 8.77057L24.4627 8.79263C24.4617 8.79622 24.4608 8.80173 24.4592 8.80673L24.4581 8.80173C24.2282 9.31708 24.2349 9.20591 24.0477 9.61163C24.0467 9.59316 24.0467 9.58162 24.0456 9.562L23.9988 8.68248L23.9693 8.65337C23.6171 8.71954 23.6088 8.73005 23.2836 8.77057L23.2582 8.79263C23.2547 8.80314 23.2547 8.81468 23.2526 8.82725L23.2547 8.83174C23.2953 9.03357 23.2856 8.98856 23.3264 9.30708C23.3454 9.46339 23.3707 9.6206 23.3897 9.77499C23.4218 10.0334 23.4397 10.1606 23.4789 10.5549C23.2593 10.907 23.2073 11.0402 22.9958 11.3493L22.9973 11.3523L22.8484 11.5811C22.8313 11.6052 22.8159 11.6217 22.7943 11.6288C22.7705 11.6402 22.7396 11.6423 22.6967 11.6423H22.6142L22.4916 12.0385L22.9123 12.0455C23.1592 12.0445 23.3145 11.9323 23.398 11.7815L23.6626 11.3412H23.6583L23.6862 11.3101C23.8641 10.938 25.2177 8.68248 25.2177 8.68248ZM20.7776 13.8863H20.5991L21.2597 11.764H21.4788L21.5484 11.5454L21.5551 11.7885C21.5469 11.9388 21.6686 12.072 21.9883 12.05H22.358L22.4853 11.6413H22.3462C22.2662 11.6413 22.2291 11.6217 22.2337 11.5796L22.227 11.3323H21.5423V11.3336C21.3209 11.338 20.6599 11.3542 20.526 11.3888C20.364 11.4293 20.1934 11.5486 20.1934 11.5486L20.2604 11.3297H19.62L19.4865 11.764L18.8171 13.9188H18.6872L18.5599 14.3245H19.8355L19.7927 14.4598H20.4213L20.463 14.3245H20.6394L20.7776 13.8863ZM20.2542 12.1953C20.1517 12.2228 19.9608 12.3064 19.9608 12.3064L20.1305 11.764H20.6394L20.5166 12.1592C20.5166 12.1592 20.3594 12.1682 20.2542 12.1953ZM20.264 12.9701C20.264 12.9701 20.1041 12.9896 19.9989 13.0127C19.8953 13.0432 19.701 13.1394 19.701 13.1394L19.8763 12.5749H20.3878L20.264 12.9701ZM19.9789 13.8913H19.4684L19.6164 13.415H20.1253L19.9789 13.8913ZM21.2081 12.5749H21.9439L21.8382 12.9076H21.0926L20.9807 13.2712H21.633L21.1391 13.9469C21.1045 13.9965 21.0735 14.0141 21.039 14.028C21.0045 14.0451 20.9591 14.0651 20.9065 14.0651H20.7255L20.6012 14.4634H21.0746C21.3206 14.4634 21.4659 14.3546 21.5733 14.2119L21.912 13.7616L21.9847 14.2188C22.0001 14.3045 22.0635 14.3546 22.1064 14.3741C22.1538 14.3972 22.2028 14.4368 22.2719 14.4427C22.3461 14.4458 22.3997 14.4482 22.4353 14.4482H22.6679L22.8076 14.0025H22.7158C22.6632 14.0025 22.5725 13.9939 22.5571 13.9779C22.5416 13.9584 22.5416 13.9284 22.5333 13.8827L22.4595 13.4245H22.1574L22.2899 13.2712H23.034L23.1484 12.9076H22.4595L22.5668 12.5749H23.2536L23.381 12.1647H21.3334L21.2081 12.5749ZM14.9938 13.984L15.1655 13.429H15.8713L16.0003 13.0162H15.2938L15.4017 12.6746H16.092L16.2199 12.2749H14.4926L14.3673 12.6746H14.7598L14.6551 13.0162H14.2616L14.1312 13.436H14.5235L14.2946 14.1703C14.2637 14.2675 14.3091 14.3045 14.3379 14.3497C14.3673 14.3936 14.3971 14.4228 14.4642 14.4393C14.5334 14.4543 14.5808 14.4633 14.6452 14.4633H15.4409L15.5826 14.006L15.2299 14.0531C15.1618 14.0531 14.9732 14.0451 14.9938 13.984ZM15.0747 11.3272L14.8959 11.6412C14.8576 11.7098 14.8232 11.7524 14.7921 11.772C14.7648 11.7886 14.7107 11.7955 14.6323 11.7955H14.539L14.4142 12.1972H14.7242C14.8732 12.1972 14.9876 12.1442 15.0423 12.1176C15.101 12.0871 15.1165 12.1045 15.1619 12.062L15.2665 11.9739H16.2344L16.3628 11.5556H15.6544L15.778 11.3272H15.0747ZM16.5036 13.992C16.4871 13.9689 16.499 13.9283 16.5242 13.8437L16.7887 12.9931H17.7297C17.8669 12.9912 17.9659 12.9897 18.0303 12.9852C18.0995 12.9781 18.1747 12.9541 18.2567 12.9111C18.3413 12.8659 18.3846 12.8183 18.4211 12.7637C18.4619 12.7092 18.5274 12.59 18.5836 12.4061L18.9161 11.3297L17.9396 11.3352C17.9396 11.3352 17.6389 11.3783 17.5065 11.4259C17.3729 11.479 17.1821 11.6272 17.1821 11.6272L17.2702 11.3322H16.667L15.8224 14.0531C15.7925 14.1587 15.7724 14.2354 15.7678 14.2814C15.7662 14.3311 15.8322 14.3802 15.875 14.4172C15.9255 14.4543 16.0003 14.4483 16.0719 14.4543C16.1473 14.4598 16.2545 14.4633 16.4025 14.4633H16.866L17.0083 13.9965L16.5933 14.0346C16.549 14.0346 16.5169 14.0115 16.5036 13.992ZM16.9594 12.4187H17.9478L17.885 12.61C17.8761 12.6145 17.855 12.6005 17.7544 12.612H16.8985L16.9594 12.4187ZM17.1574 11.777H18.1541L18.0824 12.0074C18.0824 12.0074 17.6126 12.0029 17.5374 12.0164C17.2063 12.072 17.013 12.2439 17.013 12.2439L17.1574 11.777ZM17.9071 13.2506C17.8989 13.2792 17.886 13.2967 17.8679 13.3098C17.8478 13.3223 17.8153 13.3268 17.7669 13.3268H17.6261L17.6344 13.0938H17.0485L17.0248 14.2329C17.0239 14.3151 17.032 14.3626 17.094 14.4007C17.1559 14.4483 17.3466 14.4543 17.6033 14.4543H17.9704L18.103 14.028L17.7834 14.045L17.6771 14.051C17.6626 14.045 17.6488 14.0395 17.6333 14.0245C17.6198 14.0116 17.5971 14.0195 17.6008 13.9373L17.6033 13.6453L17.9385 13.6319C18.1195 13.6319 18.1968 13.5747 18.2628 13.5202C18.3258 13.468 18.3464 13.408 18.3701 13.3268L18.4264 13.0683H17.9658L17.9071 13.2506Z" fill="#FEFEFE"/>
</svg>
