<svg width="44" height="14" viewBox="0 0 44 14" fill="none" xmlns="http://www.w3.org/2000/svg">
<path d="M16.8262 0.275891L11.2622 13.5559H7.63207L4.894 2.95785C4.72776 2.30508 4.58322 2.06593 4.07767 1.79092C3.25226 1.34296 1.8892 0.922688 0.689941 0.661843L0.771397 0.275891H6.61475C7.35959 0.275891 8.02916 0.771894 8.19827 1.62994L9.64434 9.31444L13.2182 0.275669H16.8262V0.275891ZM31.0495 9.22012C31.0641 5.7151 26.2047 5.52201 26.2381 3.95628C26.2485 3.47976 26.702 2.97313 27.6948 2.84381C28.1868 2.77938 29.5426 2.73022 31.0803 3.43813L31.6835 0.621985C30.8572 0.321947 29.794 0.0332031 28.4713 0.0332031C25.0769 0.0332031 22.6881 1.8383 22.668 4.42305C22.6461 6.33488 24.373 7.40173 25.6741 8.03701C27.0126 8.68758 27.4617 9.10564 27.4566 9.68755C27.4471 10.5784 26.3891 10.9716 25.4003 10.9871C23.6742 11.0137 22.6726 10.5199 21.8742 10.1486L21.2518 13.0579C22.0542 13.4262 23.5352 13.7475 25.0707 13.7636C28.6785 13.7636 31.0385 11.9809 31.0495 9.22012ZM40.0128 13.5559H43.1889L40.4165 0.275891H37.485C36.8258 0.275891 36.2698 0.659851 36.0237 1.25018L30.8705 13.5559H34.4764L35.1923 11.5724H39.5982L40.0128 13.5559ZM36.181 8.85055L37.9886 3.86439L39.0289 8.85055H36.181ZM21.7328 0.275891L18.8931 13.5559H15.4591L18.2999 0.275891H21.7328Z" fill="white"/>
</svg>
